<svg width="51" height="51" viewBox="0 0 51 51" fill="none" xmlns="http://www.w3.org/2000/svg">
<path d="M46.2305 43.7889L38.9261 36.6474L38.7549 36.387C38.4366 36.0701 38.0013 35.8916 37.547 35.8916C37.0927 35.8916 36.6574 36.0701 36.3391 36.387C30.1314 42.0821 20.5661 42.3917 13.9868 37.1104C7.40746 31.8292 5.8558 22.5959 10.3608 15.5341C14.8659 8.47232 24.0297 5.7733 31.7748 9.22704C39.52 12.6808 43.4431 21.2156 40.9424 29.1711C40.7623 29.7459 40.9095 30.3709 41.3286 30.8107C41.7476 31.2506 42.3748 31.4384 42.974 31.3036C43.5731 31.1687 44.0531 30.7315 44.2332 30.1568C47.2226 20.7159 42.7077 10.5561 33.6093 6.24975C24.5108 1.94344 13.5593 4.783 7.83924 12.9315C2.1192 21.08 3.34726 32.0921 10.729 38.8439C18.1107 45.5958 29.4308 46.0613 37.3663 39.9392L43.8338 46.2624C44.5017 46.9126 45.5816 46.9126 46.2496 46.2624C46.9168 45.6029 46.9168 44.5413 46.2496 43.8819L46.2305 43.7889Z" fill="black"/>
</svg>
